<svg width="153" height="24" viewBox="0 0 153 24" fill="none" xmlns="http://www.w3.org/2000/svg">
<mask id="path-1-outside-1_1683_837" maskUnits="userSpaceOnUse" x="-0.599609" y="-0.600098" width="154" height="25" fill="black">
<rect fill="white" x="-0.599609" y="-0.600098" width="154" height="25"/>
<path d="M11.9932 23.0187H9.05462V2.52835H0.400391V0.781117H20.6474V2.52835H11.9932V23.0187Z"/>
<path d="M37.7493 0.781117H40.6878V23.0187H37.7493V0.781117Z"/>
<path d="M58.1171 0.781117H61.6046L69.3547 19.0795H69.4839L77.0079 0.781117H78.6871L69.5162 23.0187H67.5786L58.1171 0.781117Z"/>
<path d="M92.5685 11.8999C92.5685 10.6927 92.7946 9.41141 93.2467 8.05598C93.7203 6.70055 94.4522 5.4616 95.4425 4.33913C96.4328 3.19548 97.6922 2.25303 99.2207 1.51178C100.749 0.770528 102.579 0.399902 104.71 0.399902C106.863 0.399902 108.725 0.781117 110.297 1.54355C111.89 2.2848 113.203 3.22725 114.236 4.3709C115.27 5.51454 116.034 6.76408 116.529 8.11952C117.024 9.45377 117.272 10.7139 117.272 11.8999C117.272 12.6835 117.153 13.5095 116.917 14.3778C116.701 15.2461 116.368 16.1145 115.916 16.9828C115.485 17.8299 114.925 18.6453 114.236 19.4289C113.548 20.1913 112.729 20.8691 111.782 21.4621C110.857 22.0551 109.802 22.5316 108.618 22.8916C107.455 23.2305 106.153 23.3999 104.71 23.3999C102.579 23.3999 100.749 23.0293 99.2207 22.288C97.6922 21.5256 96.4328 20.5726 95.4425 19.4289C94.4522 18.2853 93.7203 17.0463 93.2467 15.7121C92.7946 14.3566 92.5685 13.0859 92.5685 11.8999ZM95.7331 11.8999C95.7331 13.3824 95.9592 14.7484 96.4113 15.998C96.8849 17.2263 97.52 18.2853 98.3165 19.1748C99.1346 20.0643 100.093 20.7632 101.19 21.2714C102.288 21.7586 103.483 22.0021 104.775 22.0021C106.045 22.0021 107.24 21.7586 108.359 21.2714C109.5 20.7632 110.491 20.0643 111.33 19.1748C112.191 18.2853 112.869 17.2263 113.365 15.998C113.86 14.7484 114.107 13.3824 114.107 11.8999C114.107 10.4174 113.86 9.06196 113.365 7.8336C112.869 6.58406 112.191 5.51454 111.33 4.62504C110.491 3.73554 109.5 3.04723 108.359 2.56012C107.24 2.05183 106.045 1.79769 104.775 1.79769C103.483 1.79769 102.288 2.05183 101.19 2.56012C100.093 3.04723 99.1346 3.73554 98.3165 4.62504C97.52 5.51454 96.8849 6.58406 96.4113 7.8336C95.9592 9.06196 95.7331 10.4174 95.7331 11.8999Z"/>
<path d="M134.059 0.781117H141.389C142.831 0.781117 144.026 0.982314 144.973 1.38471C145.92 1.76592 146.663 2.25303 147.201 2.84603C147.761 3.41786 148.149 4.04263 148.364 4.72034C148.601 5.39806 148.719 6.02283 148.719 6.59465C148.719 7.23001 148.611 7.88655 148.396 8.56427C148.181 9.2208 147.836 9.83498 147.363 10.4068C146.889 10.9786 146.276 11.4552 145.522 11.8364C144.79 12.2176 143.908 12.44 142.874 12.5035V12.6306L143.197 12.7894C143.456 12.9165 143.671 13.0753 143.843 13.2659C144.037 13.4565 144.274 13.7636 144.553 14.1872C144.855 14.6108 145.253 15.2144 145.748 15.998C146.243 16.7604 146.943 17.7876 147.847 19.0795C148.149 19.5242 148.439 19.9266 148.719 20.2866C148.999 20.6255 149.29 20.922 149.591 21.1761C149.892 21.4091 150.215 21.5891 150.56 21.7162C150.904 21.8433 151.302 21.9068 151.755 21.9068C151.862 21.9068 151.97 21.9068 152.077 21.9068C152.185 21.8856 152.293 21.8645 152.4 21.8433V23.0187C152.099 23.1881 151.798 23.294 151.496 23.3364C151.195 23.3787 150.807 23.3999 150.334 23.3999C149.688 23.3999 149.128 23.3152 148.655 23.1458C148.202 22.9763 147.793 22.754 147.427 22.4786C147.061 22.1821 146.717 21.8327 146.394 21.4303C146.093 21.0279 145.781 20.5831 145.458 20.096L142.907 16.3792C142.519 15.7862 142.185 15.2885 141.906 14.8861C141.626 14.4837 141.324 14.1554 141.001 13.9013C140.678 13.6471 140.312 13.4671 139.903 13.3612C139.516 13.2553 139.021 13.2024 138.418 13.2024H136.997V23.0187H134.059V0.781117ZM136.997 2.17891V11.7728H140.323C141.184 11.7728 141.938 11.6246 142.584 11.3281C143.251 11.0316 143.811 10.6504 144.263 10.1844C144.715 9.69732 145.049 9.16786 145.264 8.59603C145.501 8.00303 145.619 7.42062 145.619 6.8488C145.619 6.17108 145.49 5.54631 145.232 4.97449C144.995 4.40266 144.64 3.91556 144.166 3.51316C143.692 3.08959 143.122 2.76132 142.454 2.52835C141.809 2.29539 141.077 2.17891 140.259 2.17891H136.997Z"/>
</mask>
<path d="M11.9932 23.0187H9.05462V2.52835H0.400391V0.781117H20.6474V2.52835H11.9932V23.0187Z" fill="white"/>
<path d="M37.7493 0.781117H40.6878V23.0187H37.7493V0.781117Z" fill="white"/>
<path d="M58.1171 0.781117H61.6046L69.3547 19.0795H69.4839L77.0079 0.781117H78.6871L69.5162 23.0187H67.5786L58.1171 0.781117Z" fill="white"/>
<path d="M92.5685 11.8999C92.5685 10.6927 92.7946 9.41141 93.2467 8.05598C93.7203 6.70055 94.4522 5.4616 95.4425 4.33913C96.4328 3.19548 97.6922 2.25303 99.2207 1.51178C100.749 0.770528 102.579 0.399902 104.71 0.399902C106.863 0.399902 108.725 0.781117 110.297 1.54355C111.89 2.2848 113.203 3.22725 114.236 4.3709C115.27 5.51454 116.034 6.76408 116.529 8.11952C117.024 9.45377 117.272 10.7139 117.272 11.8999C117.272 12.6835 117.153 13.5095 116.917 14.3778C116.701 15.2461 116.368 16.1145 115.916 16.9828C115.485 17.8299 114.925 18.6453 114.236 19.4289C113.548 20.1913 112.729 20.8691 111.782 21.4621C110.857 22.0551 109.802 22.5316 108.618 22.8916C107.455 23.2305 106.153 23.3999 104.71 23.3999C102.579 23.3999 100.749 23.0293 99.2207 22.288C97.6922 21.5256 96.4328 20.5726 95.4425 19.4289C94.4522 18.2853 93.7203 17.0463 93.2467 15.7121C92.7946 14.3566 92.5685 13.0859 92.5685 11.8999ZM95.7331 11.8999C95.7331 13.3824 95.9592 14.7484 96.4113 15.998C96.8849 17.2263 97.52 18.2853 98.3165 19.1748C99.1346 20.0643 100.093 20.7632 101.19 21.2714C102.288 21.7586 103.483 22.0021 104.775 22.0021C106.045 22.0021 107.24 21.7586 108.359 21.2714C109.5 20.7632 110.491 20.0643 111.33 19.1748C112.191 18.2853 112.869 17.2263 113.365 15.998C113.86 14.7484 114.107 13.3824 114.107 11.8999C114.107 10.4174 113.86 9.06196 113.365 7.8336C112.869 6.58406 112.191 5.51454 111.33 4.62504C110.491 3.73554 109.5 3.04723 108.359 2.56012C107.24 2.05183 106.045 1.79769 104.775 1.79769C103.483 1.79769 102.288 2.05183 101.19 2.56012C100.093 3.04723 99.1346 3.73554 98.3165 4.62504C97.52 5.51454 96.8849 6.58406 96.4113 7.8336C95.9592 9.06196 95.7331 10.4174 95.7331 11.8999Z" fill="white"/>
<path d="M134.059 0.781117H141.389C142.831 0.781117 144.026 0.982314 144.973 1.38471C145.92 1.76592 146.663 2.25303 147.201 2.84603C147.761 3.41786 148.149 4.04263 148.364 4.72034C148.601 5.39806 148.719 6.02283 148.719 6.59465C148.719 7.23001 148.611 7.88655 148.396 8.56427C148.181 9.2208 147.836 9.83498 147.363 10.4068C146.889 10.9786 146.276 11.4552 145.522 11.8364C144.79 12.2176 143.908 12.44 142.874 12.5035V12.6306L143.197 12.7894C143.456 12.9165 143.671 13.0753 143.843 13.2659C144.037 13.4565 144.274 13.7636 144.553 14.1872C144.855 14.6108 145.253 15.2144 145.748 15.998C146.243 16.7604 146.943 17.7876 147.847 19.0795C148.149 19.5242 148.439 19.9266 148.719 20.2866C148.999 20.6255 149.29 20.922 149.591 21.1761C149.892 21.4091 150.215 21.5891 150.56 21.7162C150.904 21.8433 151.302 21.9068 151.755 21.9068C151.862 21.9068 151.97 21.9068 152.077 21.9068C152.185 21.8856 152.293 21.8645 152.4 21.8433V23.0187C152.099 23.1881 151.798 23.294 151.496 23.3364C151.195 23.3787 150.807 23.3999 150.334 23.3999C149.688 23.3999 149.128 23.3152 148.655 23.1458C148.202 22.9763 147.793 22.754 147.427 22.4786C147.061 22.1821 146.717 21.8327 146.394 21.4303C146.093 21.0279 145.781 20.5831 145.458 20.096L142.907 16.3792C142.519 15.7862 142.185 15.2885 141.906 14.8861C141.626 14.4837 141.324 14.1554 141.001 13.9013C140.678 13.6471 140.312 13.4671 139.903 13.3612C139.516 13.2553 139.021 13.2024 138.418 13.2024H136.997V23.0187H134.059V0.781117ZM136.997 2.17891V11.7728H140.323C141.184 11.7728 141.938 11.6246 142.584 11.3281C143.251 11.0316 143.811 10.6504 144.263 10.1844C144.715 9.69732 145.049 9.16786 145.264 8.59603C145.501 8.00303 145.619 7.42062 145.619 6.8488C145.619 6.17108 145.49 5.54631 145.232 4.97449C144.995 4.40266 144.64 3.91556 144.166 3.51316C143.692 3.08959 143.122 2.76132 142.454 2.52835C141.809 2.29539 141.077 2.17891 140.259 2.17891H136.997Z" fill="white"/>
<path d="M11.9932 23.0187H9.05462V2.52835H0.400391V0.781117H20.6474V2.52835H11.9932V23.0187Z" stroke="white" stroke-width="0.8" mask="url(#path-1-outside-1_1683_837)"/>
<path d="M37.7493 0.781117H40.6878V23.0187H37.7493V0.781117Z" stroke="white" stroke-width="0.8" mask="url(#path-1-outside-1_1683_837)"/>
<path d="M58.1171 0.781117H61.6046L69.3547 19.0795H69.4839L77.0079 0.781117H78.6871L69.5162 23.0187H67.5786L58.1171 0.781117Z" stroke="white" stroke-width="0.8" mask="url(#path-1-outside-1_1683_837)"/>
<path d="M92.5685 11.8999C92.5685 10.6927 92.7946 9.41141 93.2467 8.05598C93.7203 6.70055 94.4522 5.4616 95.4425 4.33913C96.4328 3.19548 97.6922 2.25303 99.2207 1.51178C100.749 0.770528 102.579 0.399902 104.71 0.399902C106.863 0.399902 108.725 0.781117 110.297 1.54355C111.89 2.2848 113.203 3.22725 114.236 4.3709C115.27 5.51454 116.034 6.76408 116.529 8.11952C117.024 9.45377 117.272 10.7139 117.272 11.8999C117.272 12.6835 117.153 13.5095 116.917 14.3778C116.701 15.2461 116.368 16.1145 115.916 16.9828C115.485 17.8299 114.925 18.6453 114.236 19.4289C113.548 20.1913 112.729 20.8691 111.782 21.4621C110.857 22.0551 109.802 22.5316 108.618 22.8916C107.455 23.2305 106.153 23.3999 104.71 23.3999C102.579 23.3999 100.749 23.0293 99.2207 22.288C97.6922 21.5256 96.4328 20.5726 95.4425 19.4289C94.4522 18.2853 93.7203 17.0463 93.2467 15.7121C92.7946 14.3566 92.5685 13.0859 92.5685 11.8999ZM95.7331 11.8999C95.7331 13.3824 95.9592 14.7484 96.4113 15.998C96.8849 17.2263 97.52 18.2853 98.3165 19.1748C99.1346 20.0643 100.093 20.7632 101.19 21.2714C102.288 21.7586 103.483 22.0021 104.775 22.0021C106.045 22.0021 107.24 21.7586 108.359 21.2714C109.5 20.7632 110.491 20.0643 111.33 19.1748C112.191 18.2853 112.869 17.2263 113.365 15.998C113.86 14.7484 114.107 13.3824 114.107 11.8999C114.107 10.4174 113.86 9.06196 113.365 7.8336C112.869 6.58406 112.191 5.51454 111.33 4.62504C110.491 3.73554 109.5 3.04723 108.359 2.56012C107.24 2.05183 106.045 1.79769 104.775 1.79769C103.483 1.79769 102.288 2.05183 101.19 2.56012C100.093 3.04723 99.1346 3.73554 98.3165 4.62504C97.52 5.51454 96.8849 6.58406 96.4113 7.8336C95.9592 9.06196 95.7331 10.4174 95.7331 11.8999Z" stroke="white" stroke-width="0.8" mask="url(#path-1-outside-1_1683_837)"/>
<path d="M134.059 0.781117H141.389C142.831 0.781117 144.026 0.982314 144.973 1.38471C145.92 1.76592 146.663 2.25303 147.201 2.84603C147.761 3.41786 148.149 4.04263 148.364 4.72034C148.601 5.39806 148.719 6.02283 148.719 6.59465C148.719 7.23001 148.611 7.88655 148.396 8.56427C148.181 9.2208 147.836 9.83498 147.363 10.4068C146.889 10.9786 146.276 11.4552 145.522 11.8364C144.79 12.2176 143.908 12.44 142.874 12.5035V12.6306L143.197 12.7894C143.456 12.9165 143.671 13.0753 143.843 13.2659C144.037 13.4565 144.274 13.7636 144.553 14.1872C144.855 14.6108 145.253 15.2144 145.748 15.998C146.243 16.7604 146.943 17.7876 147.847 19.0795C148.149 19.5242 148.439 19.9266 148.719 20.2866C148.999 20.6255 149.29 20.922 149.591 21.1761C149.892 21.4091 150.215 21.5891 150.56 21.7162C150.904 21.8433 151.302 21.9068 151.755 21.9068C151.862 21.9068 151.97 21.9068 152.077 21.9068C152.185 21.8856 152.293 21.8645 152.4 21.8433V23.0187C152.099 23.1881 151.798 23.294 151.496 23.3364C151.195 23.3787 150.807 23.3999 150.334 23.3999C149.688 23.3999 149.128 23.3152 148.655 23.1458C148.202 22.9763 147.793 22.754 147.427 22.4786C147.061 22.1821 146.717 21.8327 146.394 21.4303C146.093 21.0279 145.781 20.5831 145.458 20.096L142.907 16.3792C142.519 15.7862 142.185 15.2885 141.906 14.8861C141.626 14.4837 141.324 14.1554 141.001 13.9013C140.678 13.6471 140.312 13.4671 139.903 13.3612C139.516 13.2553 139.021 13.2024 138.418 13.2024H136.997V23.0187H134.059V0.781117ZM136.997 2.17891V11.7728H140.323C141.184 11.7728 141.938 11.6246 142.584 11.3281C143.251 11.0316 143.811 10.6504 144.263 10.1844C144.715 9.69732 145.049 9.16786 145.264 8.59603C145.501 8.00303 145.619 7.42062 145.619 6.8488C145.619 6.17108 145.49 5.54631 145.232 4.97449C144.995 4.40266 144.64 3.91556 144.166 3.51316C143.692 3.08959 143.122 2.76132 142.454 2.52835C141.809 2.29539 141.077 2.17891 140.259 2.17891H136.997Z" stroke="white" stroke-width="0.8" mask="url(#path-1-outside-1_1683_837)"/>
</svg>
