<svg width="84" height="12" viewBox="0 0 84 12" fill="none" xmlns="http://www.w3.org/2000/svg">
<path d="M11.232 7.956C10.944 8.292 10.728 8.58 10.584 8.82C10.44 9.06 10.308 9.372 10.188 9.756C10.14 9.756 10.104 9.768 10.08 9.792C10.056 9.792 10.032 9.792 10.008 9.792C9.408 9.288 8.832 8.832 8.28 8.424C7.728 8.016 7.008 7.524 6.12 6.948C6.192 7.644 6.252 8.232 6.3 8.712C6.348 9.168 6.384 9.576 6.408 9.936C6.456 10.272 6.504 10.584 6.552 10.872C6.6 11.136 6.66 11.412 6.732 11.7L6.588 11.808C6.348 11.784 6.168 11.772 6.048 11.772C5.952 11.772 5.808 11.772 5.616 11.772C5.424 11.772 5.256 11.772 5.112 11.772C4.992 11.772 4.824 11.784 4.608 11.808L4.5 11.7C4.62 10.98 4.704 10.284 4.752 9.612C4.824 8.94 4.92 8.04 5.04 6.912C4.536 7.272 4.104 7.584 3.744 7.848C3.384 8.088 3.06 8.316 2.772 8.532C2.484 8.748 2.22 8.964 1.98 9.18C1.74 9.372 1.476 9.588 1.188 9.828C1.14 9.828 1.104 9.828 1.08 9.828C1.08 9.804 1.056 9.792 1.008 9.792C0.864 9.456 0.72 9.18 0.576 8.964C0.456 8.724 0.264 8.448 0 8.136C0 8.112 0 8.076 0 8.028C0.0239999 7.98 0.0359998 7.932 0.0359998 7.884C0.876 7.572 1.632 7.272 2.304 6.984C3 6.672 3.72 6.312 4.464 5.904C3.912 5.616 3.456 5.388 3.096 5.22C2.76 5.052 2.448 4.908 2.16 4.788C1.896 4.668 1.608 4.56 1.296 4.464C1.008 4.344 0.636 4.212 0.18 4.068L0.108 3.816C0.372 3.48 0.576 3.192 0.72 2.952C0.888 2.712 1.044 2.424 1.188 2.088L1.332 2.052C1.476 2.172 1.62 2.304 1.764 2.448C1.908 2.568 2.112 2.736 2.376 2.952C2.664 3.144 3.012 3.396 3.42 3.708C3.852 4.02 4.416 4.428 5.112 4.932C5.064 4.476 5.004 4.056 4.932 3.672C4.884 3.264 4.824 2.88 4.752 2.52C4.704 2.136 4.632 1.764 4.536 1.404C4.44 1.02 4.332 0.6 4.212 0.144L4.32 0C4.536 0.0479994 4.704 0.0719991 4.824 0.0719991C4.944 0.0719991 5.124 0.0719991 5.364 0.0719991C5.556 0.0719991 5.724 0.0719991 5.868 0.0719991C6.012 0.0719991 6.18 0.0479994 6.372 0C6.396 0.0479994 6.408 0.0719991 6.408 0.0719991C6.432 0.0719991 6.456 0.0839989 6.48 0.107999C6.312 0.804 6.204 1.56 6.156 2.376C6.132 3.168 6.12 4.02 6.12 4.932C6.552 4.596 6.924 4.308 7.236 4.068C7.572 3.804 7.872 3.552 8.136 3.312C8.4 3.072 8.652 2.844 8.892 2.628C9.132 2.388 9.396 2.124 9.684 1.836C9.708 1.908 9.768 1.944 9.864 1.944C10.008 2.232 10.14 2.508 10.26 2.772C10.404 3.012 10.608 3.3 10.872 3.636C10.848 3.684 10.836 3.732 10.836 3.78C10.836 3.828 10.836 3.864 10.836 3.888C10.404 4.056 10.008 4.212 9.648 4.356C9.288 4.5 8.94 4.656 8.604 4.824C8.268 4.968 7.932 5.124 7.596 5.292C7.26 5.46 6.888 5.652 6.48 5.868C6.912 6.108 7.296 6.324 7.632 6.516C7.992 6.684 8.34 6.84 8.676 6.984C9.036 7.128 9.408 7.26 9.792 7.38C10.176 7.5 10.632 7.632 11.16 7.776L11.232 7.956Z" fill="#824B2E"/>
<path d="M29.232 7.956C28.944 8.292 28.728 8.58 28.584 8.82C28.44 9.06 28.308 9.372 28.188 9.756C28.14 9.756 28.104 9.768 28.08 9.792C28.056 9.792 28.032 9.792 28.008 9.792C27.408 9.288 26.832 8.832 26.28 8.424C25.728 8.016 25.008 7.524 24.12 6.948C24.192 7.644 24.252 8.232 24.3 8.712C24.348 9.168 24.384 9.576 24.408 9.936C24.456 10.272 24.504 10.584 24.552 10.872C24.6 11.136 24.66 11.412 24.732 11.7L24.588 11.808C24.348 11.784 24.168 11.772 24.048 11.772C23.952 11.772 23.808 11.772 23.616 11.772C23.424 11.772 23.256 11.772 23.112 11.772C22.992 11.772 22.824 11.784 22.608 11.808L22.5 11.7C22.62 10.98 22.704 10.284 22.752 9.612C22.824 8.94 22.92 8.04 23.04 6.912C22.536 7.272 22.104 7.584 21.744 7.848C21.384 8.088 21.06 8.316 20.772 8.532C20.484 8.748 20.22 8.964 19.98 9.18C19.74 9.372 19.476 9.588 19.188 9.828C19.14 9.828 19.104 9.828 19.08 9.828C19.08 9.804 19.056 9.792 19.008 9.792C18.864 9.456 18.72 9.18 18.576 8.964C18.456 8.724 18.264 8.448 18 8.136C18 8.112 18 8.076 18 8.028C18.024 7.98 18.036 7.932 18.036 7.884C18.876 7.572 19.632 7.272 20.304 6.984C21 6.672 21.72 6.312 22.464 5.904C21.912 5.616 21.456 5.388 21.096 5.22C20.76 5.052 20.448 4.908 20.16 4.788C19.896 4.668 19.608 4.56 19.296 4.464C19.008 4.344 18.636 4.212 18.18 4.068L18.108 3.816C18.372 3.48 18.576 3.192 18.72 2.952C18.888 2.712 19.044 2.424 19.188 2.088L19.332 2.052C19.476 2.172 19.62 2.304 19.764 2.448C19.908 2.568 20.112 2.736 20.376 2.952C20.664 3.144 21.012 3.396 21.42 3.708C21.852 4.02 22.416 4.428 23.112 4.932C23.064 4.476 23.004 4.056 22.932 3.672C22.884 3.264 22.824 2.88 22.752 2.52C22.704 2.136 22.632 1.764 22.536 1.404C22.44 1.02 22.332 0.6 22.212 0.144L22.32 0C22.536 0.0479994 22.704 0.0719991 22.824 0.0719991C22.944 0.0719991 23.124 0.0719991 23.364 0.0719991C23.556 0.0719991 23.724 0.0719991 23.868 0.0719991C24.012 0.0719991 24.18 0.0479994 24.372 0C24.396 0.0479994 24.408 0.0719991 24.408 0.0719991C24.432 0.0719991 24.456 0.0839989 24.48 0.107999C24.312 0.804 24.204 1.56 24.156 2.376C24.132 3.168 24.12 4.02 24.12 4.932C24.552 4.596 24.924 4.308 25.236 4.068C25.572 3.804 25.872 3.552 26.136 3.312C26.4 3.072 26.652 2.844 26.892 2.628C27.132 2.388 27.396 2.124 27.684 1.836C27.708 1.908 27.768 1.944 27.864 1.944C28.008 2.232 28.14 2.508 28.26 2.772C28.404 3.012 28.608 3.3 28.872 3.636C28.848 3.684 28.836 3.732 28.836 3.78C28.836 3.828 28.836 3.864 28.836 3.888C28.404 4.056 28.008 4.212 27.648 4.356C27.288 4.5 26.94 4.656 26.604 4.824C26.268 4.968 25.932 5.124 25.596 5.292C25.26 5.46 24.888 5.652 24.48 5.868C24.912 6.108 25.296 6.324 25.632 6.516C25.992 6.684 26.34 6.84 26.676 6.984C27.036 7.128 27.408 7.26 27.792 7.38C28.176 7.5 28.632 7.632 29.16 7.776L29.232 7.956Z" fill="#824B2E"/>
<path d="M47.232 7.956C46.944 8.292 46.728 8.58 46.584 8.82C46.44 9.06 46.308 9.372 46.188 9.756C46.14 9.756 46.104 9.768 46.08 9.792C46.056 9.792 46.032 9.792 46.008 9.792C45.408 9.288 44.832 8.832 44.28 8.424C43.728 8.016 43.008 7.524 42.12 6.948C42.192 7.644 42.252 8.232 42.3 8.712C42.348 9.168 42.384 9.576 42.408 9.936C42.456 10.272 42.504 10.584 42.552 10.872C42.6 11.136 42.66 11.412 42.732 11.7L42.588 11.808C42.348 11.784 42.168 11.772 42.048 11.772C41.952 11.772 41.808 11.772 41.616 11.772C41.424 11.772 41.256 11.772 41.112 11.772C40.992 11.772 40.824 11.784 40.608 11.808L40.5 11.7C40.62 10.98 40.704 10.284 40.752 9.612C40.824 8.94 40.92 8.04 41.04 6.912C40.536 7.272 40.104 7.584 39.744 7.848C39.384 8.088 39.06 8.316 38.772 8.532C38.484 8.748 38.22 8.964 37.98 9.18C37.74 9.372 37.476 9.588 37.188 9.828C37.14 9.828 37.104 9.828 37.08 9.828C37.08 9.804 37.056 9.792 37.008 9.792C36.864 9.456 36.72 9.18 36.576 8.964C36.456 8.724 36.264 8.448 36 8.136C36 8.112 36 8.076 36 8.028C36.024 7.98 36.036 7.932 36.036 7.884C36.876 7.572 37.632 7.272 38.304 6.984C39 6.672 39.72 6.312 40.464 5.904C39.912 5.616 39.456 5.388 39.096 5.22C38.76 5.052 38.448 4.908 38.16 4.788C37.896 4.668 37.608 4.56 37.296 4.464C37.008 4.344 36.636 4.212 36.18 4.068L36.108 3.816C36.372 3.48 36.576 3.192 36.72 2.952C36.888 2.712 37.044 2.424 37.188 2.088L37.332 2.052C37.476 2.172 37.62 2.304 37.764 2.448C37.908 2.568 38.112 2.736 38.376 2.952C38.664 3.144 39.012 3.396 39.42 3.708C39.852 4.02 40.416 4.428 41.112 4.932C41.064 4.476 41.004 4.056 40.932 3.672C40.884 3.264 40.824 2.88 40.752 2.52C40.704 2.136 40.632 1.764 40.536 1.404C40.44 1.02 40.332 0.6 40.212 0.144L40.32 0C40.536 0.0479994 40.704 0.0719991 40.824 0.0719991C40.944 0.0719991 41.124 0.0719991 41.364 0.0719991C41.556 0.0719991 41.724 0.0719991 41.868 0.0719991C42.012 0.0719991 42.18 0.0479994 42.372 0C42.396 0.0479994 42.408 0.0719991 42.408 0.0719991C42.432 0.0719991 42.456 0.0839989 42.48 0.107999C42.312 0.804 42.204 1.56 42.156 2.376C42.132 3.168 42.12 4.02 42.12 4.932C42.552 4.596 42.924 4.308 43.236 4.068C43.572 3.804 43.872 3.552 44.136 3.312C44.4 3.072 44.652 2.844 44.892 2.628C45.132 2.388 45.396 2.124 45.684 1.836C45.708 1.908 45.768 1.944 45.864 1.944C46.008 2.232 46.14 2.508 46.26 2.772C46.404 3.012 46.608 3.3 46.872 3.636C46.848 3.684 46.836 3.732 46.836 3.78C46.836 3.828 46.836 3.864 46.836 3.888C46.404 4.056 46.008 4.212 45.648 4.356C45.288 4.5 44.94 4.656 44.604 4.824C44.268 4.968 43.932 5.124 43.596 5.292C43.26 5.46 42.888 5.652 42.48 5.868C42.912 6.108 43.296 6.324 43.632 6.516C43.992 6.684 44.34 6.84 44.676 6.984C45.036 7.128 45.408 7.26 45.792 7.38C46.176 7.5 46.632 7.632 47.16 7.776L47.232 7.956Z" fill="#824B2E"/>
<path d="M65.232 7.956C64.944 8.292 64.728 8.58 64.584 8.82C64.44 9.06 64.308 9.372 64.188 9.756C64.14 9.756 64.104 9.768 64.08 9.792C64.056 9.792 64.032 9.792 64.008 9.792C63.408 9.288 62.832 8.832 62.28 8.424C61.728 8.016 61.008 7.524 60.12 6.948C60.192 7.644 60.252 8.232 60.3 8.712C60.348 9.168 60.384 9.576 60.408 9.936C60.456 10.272 60.504 10.584 60.552 10.872C60.6 11.136 60.66 11.412 60.732 11.7L60.588 11.808C60.348 11.784 60.168 11.772 60.048 11.772C59.952 11.772 59.808 11.772 59.616 11.772C59.424 11.772 59.256 11.772 59.112 11.772C58.992 11.772 58.824 11.784 58.608 11.808L58.5 11.7C58.62 10.98 58.704 10.284 58.752 9.612C58.824 8.94 58.92 8.04 59.04 6.912C58.536 7.272 58.104 7.584 57.744 7.848C57.384 8.088 57.06 8.316 56.772 8.532C56.484 8.748 56.22 8.964 55.98 9.18C55.74 9.372 55.476 9.588 55.188 9.828C55.14 9.828 55.104 9.828 55.08 9.828C55.08 9.804 55.056 9.792 55.008 9.792C54.864 9.456 54.72 9.18 54.576 8.964C54.456 8.724 54.264 8.448 54 8.136C54 8.112 54 8.076 54 8.028C54.024 7.98 54.036 7.932 54.036 7.884C54.876 7.572 55.632 7.272 56.304 6.984C57 6.672 57.72 6.312 58.464 5.904C57.912 5.616 57.456 5.388 57.096 5.22C56.76 5.052 56.448 4.908 56.16 4.788C55.896 4.668 55.608 4.56 55.296 4.464C55.008 4.344 54.636 4.212 54.18 4.068L54.108 3.816C54.372 3.48 54.576 3.192 54.72 2.952C54.888 2.712 55.044 2.424 55.188 2.088L55.332 2.052C55.476 2.172 55.62 2.304 55.764 2.448C55.908 2.568 56.112 2.736 56.376 2.952C56.664 3.144 57.012 3.396 57.42 3.708C57.852 4.02 58.416 4.428 59.112 4.932C59.064 4.476 59.004 4.056 58.932 3.672C58.884 3.264 58.824 2.88 58.752 2.52C58.704 2.136 58.632 1.764 58.536 1.404C58.44 1.02 58.332 0.6 58.212 0.144L58.32 0C58.536 0.0479994 58.704 0.0719991 58.824 0.0719991C58.944 0.0719991 59.124 0.0719991 59.364 0.0719991C59.556 0.0719991 59.724 0.0719991 59.868 0.0719991C60.012 0.0719991 60.18 0.0479994 60.372 0C60.396 0.0479994 60.408 0.0719991 60.408 0.0719991C60.432 0.0719991 60.456 0.0839989 60.48 0.107999C60.312 0.804 60.204 1.56 60.156 2.376C60.132 3.168 60.12 4.02 60.12 4.932C60.552 4.596 60.924 4.308 61.236 4.068C61.572 3.804 61.872 3.552 62.136 3.312C62.4 3.072 62.652 2.844 62.892 2.628C63.132 2.388 63.396 2.124 63.684 1.836C63.708 1.908 63.768 1.944 63.864 1.944C64.008 2.232 64.14 2.508 64.26 2.772C64.404 3.012 64.608 3.3 64.872 3.636C64.848 3.684 64.836 3.732 64.836 3.78C64.836 3.828 64.836 3.864 64.836 3.888C64.404 4.056 64.008 4.212 63.648 4.356C63.288 4.5 62.94 4.656 62.604 4.824C62.268 4.968 61.932 5.124 61.596 5.292C61.26 5.46 60.888 5.652 60.48 5.868C60.912 6.108 61.296 6.324 61.632 6.516C61.992 6.684 62.34 6.84 62.676 6.984C63.036 7.128 63.408 7.26 63.792 7.38C64.176 7.5 64.632 7.632 65.16 7.776L65.232 7.956Z" fill="#824B2E"/>
<path d="M83.232 7.956C82.944 8.292 82.728 8.58 82.584 8.82C82.44 9.06 82.308 9.372 82.188 9.756C82.14 9.756 82.104 9.768 82.08 9.792C82.056 9.792 82.032 9.792 82.008 9.792C81.408 9.288 80.832 8.832 80.28 8.424C79.728 8.016 79.008 7.524 78.12 6.948C78.192 7.644 78.252 8.232 78.3 8.712C78.348 9.168 78.384 9.576 78.408 9.936C78.456 10.272 78.504 10.584 78.552 10.872C78.6 11.136 78.66 11.412 78.732 11.7L78.588 11.808C78.348 11.784 78.168 11.772 78.048 11.772C77.952 11.772 77.808 11.772 77.616 11.772C77.424 11.772 77.256 11.772 77.112 11.772C76.992 11.772 76.824 11.784 76.608 11.808L76.5 11.7C76.62 10.98 76.704 10.284 76.752 9.612C76.824 8.94 76.92 8.04 77.04 6.912C76.536 7.272 76.104 7.584 75.744 7.848C75.384 8.088 75.06 8.316 74.772 8.532C74.484 8.748 74.22 8.964 73.98 9.18C73.74 9.372 73.476 9.588 73.188 9.828C73.14 9.828 73.104 9.828 73.08 9.828C73.08 9.804 73.056 9.792 73.008 9.792C72.864 9.456 72.72 9.18 72.576 8.964C72.456 8.724 72.264 8.448 72 8.136C72 8.112 72 8.076 72 8.028C72.024 7.98 72.036 7.932 72.036 7.884C72.876 7.572 73.632 7.272 74.304 6.984C75 6.672 75.72 6.312 76.464 5.904C75.912 5.616 75.456 5.388 75.096 5.22C74.76 5.052 74.448 4.908 74.16 4.788C73.896 4.668 73.608 4.56 73.296 4.464C73.008 4.344 72.636 4.212 72.18 4.068L72.108 3.816C72.372 3.48 72.576 3.192 72.72 2.952C72.888 2.712 73.044 2.424 73.188 2.088L73.332 2.052C73.476 2.172 73.62 2.304 73.764 2.448C73.908 2.568 74.112 2.736 74.376 2.952C74.664 3.144 75.012 3.396 75.42 3.708C75.852 4.02 76.416 4.428 77.112 4.932C77.064 4.476 77.004 4.056 76.932 3.672C76.884 3.264 76.824 2.88 76.752 2.52C76.704 2.136 76.632 1.764 76.536 1.404C76.44 1.02 76.332 0.6 76.212 0.144L76.32 0C76.536 0.0479994 76.704 0.0719991 76.824 0.0719991C76.944 0.0719991 77.124 0.0719991 77.364 0.0719991C77.556 0.0719991 77.724 0.0719991 77.868 0.0719991C78.012 0.0719991 78.18 0.0479994 78.372 0C78.396 0.0479994 78.408 0.0719991 78.408 0.0719991C78.432 0.0719991 78.456 0.0839989 78.48 0.107999C78.312 0.804 78.204 1.56 78.156 2.376C78.132 3.168 78.12 4.02 78.12 4.932C78.552 4.596 78.924 4.308 79.236 4.068C79.572 3.804 79.872 3.552 80.136 3.312C80.4 3.072 80.652 2.844 80.892 2.628C81.132 2.388 81.396 2.124 81.684 1.836C81.708 1.908 81.768 1.944 81.864 1.944C82.008 2.232 82.14 2.508 82.26 2.772C82.404 3.012 82.608 3.3 82.872 3.636C82.848 3.684 82.836 3.732 82.836 3.78C82.836 3.828 82.836 3.864 82.836 3.888C82.404 4.056 82.008 4.212 81.648 4.356C81.288 4.5 80.94 4.656 80.604 4.824C80.268 4.968 79.932 5.124 79.596 5.292C79.26 5.46 78.888 5.652 78.48 5.868C78.912 6.108 79.296 6.324 79.632 6.516C79.992 6.684 80.34 6.84 80.676 6.984C81.036 7.128 81.408 7.26 81.792 7.38C82.176 7.5 82.632 7.632 83.16 7.776L83.232 7.956Z" fill="#824B2E"/>
</svg>
